<svg xmlns="http://www.w3.org/2000/svg" width="750" viewBox="0 0 562.5 562.5" height="750" version="1.0"><defs><clipPath id="a"><path d="M0 0h562v562H0Zm0 0"/></clipPath></defs><g clip-path="url(#a)"><path d="M281.25 0C125.918 0 0 125.918 0 281.25 0 436.578 125.918 562.5 281.25 562.5c155.328 0 281.25-125.922 281.25-281.25C562.5 125.918 436.578 0 281.25 0"/></g><path d="M181.595 285.463H87.313c0 9.125 2.957 15.887 8.875 20.281 5.914 4.387 12.336 6.578 19.266 6.578 7.258 0 13-.968 17.219-2.906 4.226-1.945 9.047-5.789 14.453-11.531l32.437 16.219c-13.511 22.636-35.98 33.953-67.406 33.953-19.605 0-36.418-6.711-50.437-20.14-14.024-13.438-21.032-29.614-21.032-48.532 0-18.926 7.008-35.145 21.032-48.656 14.019-13.52 30.832-20.282 50.437-20.282 20.613 0 37.379 5.961 50.297 17.875 12.926 11.907 19.39 28.93 19.39 51.063 0 3.043-.085 5.07-.25 6.078Zm-93.016-24.828H138c-1.012-6.758-3.672-11.953-7.985-15.578-4.304-3.633-9.836-5.453-16.593-5.453-7.438 0-13.356 1.945-17.75 5.828-4.387 3.886-6.75 8.953-7.094 15.203ZM190.202 344.26v-130h44.86v18.75h.5c.343-.676.894-1.52 1.656-2.531.758-1.02 2.406-2.797 4.937-5.328a61.54 61.54 0 0 1 8.11-6.829c2.875-2.03 6.594-3.847 11.156-5.453 4.563-1.613 9.207-2.422 13.938-2.422 4.894 0 9.707.68 14.437 2.032 4.727 1.355 8.191 2.71 10.39 4.062l3.548 2.016-18.75 38.015c-5.575-4.726-13.344-7.093-23.313-7.093-5.406 0-10.055 1.183-13.937 3.547-3.887 2.367-6.633 5.242-8.235 8.625-1.605 3.375-2.746 6.246-3.422 8.609-.68 2.367-1.015 4.226-1.015 5.578v68.422ZM312.608 328.166c-12.168-13.258-18.25-29.52-18.25-48.781 0-19.258 6.082-35.563 18.25-48.906 12.164-13.352 27.625-20.032 46.375-20.032 17.226 0 31.421 5.407 42.578 16.22V214.26h44.843v130h-44.343v-14.703h-.5c-11.157 12.336-25.352 18.5-42.578 18.5-18.75 0-34.211-6.63-46.375-19.89Zm38.125-70.828c-5.825 5.742-8.735 13.09-8.735 22.047 0 8.96 2.785 16.266 8.36 21.922 5.582 5.656 12.93 8.484 22.046 8.484 8.79 0 16.016-2.867 21.672-8.61 5.664-5.75 8.5-13.015 8.5-21.796 0-8.957-2.918-16.305-8.75-22.047-5.836-5.75-12.976-8.625-21.422-8.625-8.617 0-15.84 2.875-21.671 8.625ZM493.036 290.026c8.113 0 15 2.835 20.656 8.5 5.656 5.656 8.484 12.539 8.484 20.64 0 7.95-2.828 14.75-8.484 20.406-5.656 5.657-12.543 8.485-20.656 8.485-7.938 0-14.743-2.828-20.407-8.485-5.656-5.656-8.484-12.457-8.484-20.406 0-8.101 2.828-14.984 8.484-20.64 5.664-5.665 12.469-8.5 20.407-8.5Zm0 0" fill="#FFF"/></svg>
